<mxfile host="www.draw.io" modified="2020-03-06T03:09:56.242Z" agent="Mozilla/5.0 (Macintosh; Intel Mac OS X 10_15_3) AppleWebKit/537.36 (KHTML, like Gecko) Chrome/80.0.3987.132 Safari/537.36" etag="2bNynO037yrTSW_RgZBj" version="12.8.0" type="github">
  <diagram id="6kZ0wstfbUclB6IqP9rn" name="Page-1">
    <mxGraphModel dx="1186" dy="692" grid="1" gridSize="10" guides="1" tooltips="1" connect="1" arrows="1" fold="1" page="1" pageScale="1" pageWidth="1169" pageHeight="827" math="0" shadow="0">
      <root>
        <mxCell id="0" />
        <mxCell id="1" parent="0" />
        <mxCell id="mux9gDT_WzU1CUeuig7T-1" value="优惠券页面" style="shape=umlLifeline;perimeter=lifelinePerimeter;whiteSpace=wrap;html=1;container=1;collapsible=0;recursiveResize=0;outlineConnect=0;" vertex="1" parent="1">
          <mxGeometry x="140" y="70" width="100" height="550" as="geometry" />
        </mxCell>
        <mxCell id="mux9gDT_WzU1CUeuig7T-20" value="" style="html=1;points=[];perimeter=orthogonalPerimeter;" vertex="1" parent="mux9gDT_WzU1CUeuig7T-1">
          <mxGeometry x="45" y="70" width="10" height="230" as="geometry" />
        </mxCell>
        <mxCell id="mux9gDT_WzU1CUeuig7T-2" value="乘车码页面" style="shape=umlLifeline;perimeter=lifelinePerimeter;whiteSpace=wrap;html=1;container=1;collapsible=0;recursiveResize=0;outlineConnect=0;" vertex="1" parent="1">
          <mxGeometry x="270" y="70" width="100" height="550" as="geometry" />
        </mxCell>
        <mxCell id="mux9gDT_WzU1CUeuig7T-21" value="" style="html=1;points=[];perimeter=orthogonalPerimeter;" vertex="1" parent="mux9gDT_WzU1CUeuig7T-2">
          <mxGeometry x="45" y="344" width="10" height="156" as="geometry" />
        </mxCell>
        <mxCell id="mux9gDT_WzU1CUeuig7T-3" value="乘车码计费后台" style="shape=umlLifeline;perimeter=lifelinePerimeter;whiteSpace=wrap;html=1;container=1;collapsible=0;recursiveResize=0;outlineConnect=0;" vertex="1" parent="1">
          <mxGeometry x="530" y="70" width="100" height="550" as="geometry" />
        </mxCell>
        <mxCell id="mux9gDT_WzU1CUeuig7T-23" value="请求当前 uid 优惠券" style="html=1;verticalAlign=bottom;endArrow=block;entryX=0.2;entryY=0;entryDx=0;entryDy=0;entryPerimeter=0;" edge="1" parent="mux9gDT_WzU1CUeuig7T-3" target="mux9gDT_WzU1CUeuig7T-24">
          <mxGeometry width="80" relative="1" as="geometry">
            <mxPoint x="50" y="390" as="sourcePoint" />
            <mxPoint x="180" y="390" as="targetPoint" />
          </mxGeometry>
        </mxCell>
        <mxCell id="mux9gDT_WzU1CUeuig7T-4" value="手图后台" style="shape=umlLifeline;perimeter=lifelinePerimeter;whiteSpace=wrap;html=1;container=1;collapsible=0;recursiveResize=0;outlineConnect=0;" vertex="1" parent="1">
          <mxGeometry x="670" y="70" width="100" height="550" as="geometry" />
        </mxCell>
        <mxCell id="mux9gDT_WzU1CUeuig7T-12" value="" style="html=1;points=[];perimeter=orthogonalPerimeter;" vertex="1" parent="mux9gDT_WzU1CUeuig7T-4">
          <mxGeometry x="45" y="80" width="10" height="80" as="geometry" />
        </mxCell>
        <mxCell id="mux9gDT_WzU1CUeuig7T-14" value="" style="html=1;points=[];perimeter=orthogonalPerimeter;" vertex="1" parent="mux9gDT_WzU1CUeuig7T-4">
          <mxGeometry x="45" y="210" width="10" height="80" as="geometry" />
        </mxCell>
        <mxCell id="mux9gDT_WzU1CUeuig7T-24" value="" style="html=1;points=[];perimeter=orthogonalPerimeter;" vertex="1" parent="mux9gDT_WzU1CUeuig7T-4">
          <mxGeometry x="45" y="390" width="10" height="100" as="geometry" />
        </mxCell>
        <mxCell id="mux9gDT_WzU1CUeuig7T-5" value="扫码终端" style="shape=umlLifeline;perimeter=lifelinePerimeter;whiteSpace=wrap;html=1;container=1;collapsible=0;recursiveResize=0;outlineConnect=0;" vertex="1" parent="1">
          <mxGeometry x="400" y="70" width="100" height="550" as="geometry" />
        </mxCell>
        <mxCell id="mux9gDT_WzU1CUeuig7T-22" value="识别成功请求扣费" style="html=1;verticalAlign=bottom;endArrow=block;" edge="1" parent="mux9gDT_WzU1CUeuig7T-5" target="mux9gDT_WzU1CUeuig7T-3">
          <mxGeometry width="80" relative="1" as="geometry">
            <mxPoint x="50" y="370" as="sourcePoint" />
            <mxPoint x="130" y="370" as="targetPoint" />
          </mxGeometry>
        </mxCell>
        <mxCell id="mux9gDT_WzU1CUeuig7T-28" value="返回实际消费金额" style="html=1;verticalAlign=bottom;endArrow=open;dashed=1;endSize=8;entryX=1.1;entryY=0.929;entryDx=0;entryDy=0;entryPerimeter=0;" edge="1" parent="mux9gDT_WzU1CUeuig7T-5" target="mux9gDT_WzU1CUeuig7T-21">
          <mxGeometry relative="1" as="geometry">
            <mxPoint x="180" y="490" as="sourcePoint" />
            <mxPoint x="-70" y="490" as="targetPoint" />
          </mxGeometry>
        </mxCell>
        <mxCell id="mux9gDT_WzU1CUeuig7T-8" value="请求优惠券列表" style="html=1;verticalAlign=bottom;endArrow=block;exitX=1;exitY=0.043;exitDx=0;exitDy=0;exitPerimeter=0;" edge="1" parent="1" source="mux9gDT_WzU1CUeuig7T-20" target="mux9gDT_WzU1CUeuig7T-4">
          <mxGeometry x="-0.7356" width="80" relative="1" as="geometry">
            <mxPoint x="210" y="149" as="sourcePoint" />
            <mxPoint x="700" y="150" as="targetPoint" />
            <mxPoint as="offset" />
          </mxGeometry>
        </mxCell>
        <mxCell id="mux9gDT_WzU1CUeuig7T-13" value="返回优惠券列表及选中状态" style="html=1;verticalAlign=bottom;endArrow=open;dashed=1;endSize=8;entryX=1;entryY=0.396;entryDx=0;entryDy=0;entryPerimeter=0;" edge="1" parent="1" target="mux9gDT_WzU1CUeuig7T-20">
          <mxGeometry x="0.6965" relative="1" as="geometry">
            <mxPoint x="720" y="230" as="sourcePoint" />
            <mxPoint x="200" y="230" as="targetPoint" />
            <mxPoint as="offset" />
          </mxGeometry>
        </mxCell>
        <mxCell id="mux9gDT_WzU1CUeuig7T-15" value="点击选择优惠券" style="html=1;verticalAlign=bottom;endArrow=block;entryX=0;entryY=0;exitX=0.9;exitY=0.609;exitDx=0;exitDy=0;exitPerimeter=0;" edge="1" target="mux9gDT_WzU1CUeuig7T-14" parent="1" source="mux9gDT_WzU1CUeuig7T-20">
          <mxGeometry x="-0.7317" relative="1" as="geometry">
            <mxPoint x="200" y="280" as="sourcePoint" />
            <mxPoint x="1" as="offset" />
          </mxGeometry>
        </mxCell>
        <mxCell id="mux9gDT_WzU1CUeuig7T-16" value="返回成功更新 UI 否则提示错误" style="html=1;verticalAlign=bottom;endArrow=open;dashed=1;endSize=8;exitX=0;exitY=0.95;entryX=1.1;entryY=0.939;entryDx=0;entryDy=0;entryPerimeter=0;" edge="1" source="mux9gDT_WzU1CUeuig7T-14" parent="1" target="mux9gDT_WzU1CUeuig7T-20">
          <mxGeometry x="0.6556" relative="1" as="geometry">
            <mxPoint x="200" y="356" as="targetPoint" />
            <mxPoint as="offset" />
          </mxGeometry>
        </mxCell>
        <mxCell id="mux9gDT_WzU1CUeuig7T-17" value="" style="html=1;points=[];perimeter=orthogonalPerimeter;" vertex="1" parent="1">
          <mxGeometry x="720" y="310" width="10" height="40" as="geometry" />
        </mxCell>
        <mxCell id="mux9gDT_WzU1CUeuig7T-18" value="更新对应 id 优惠券状态为当前选中。&lt;br&gt;取消之前选中优惠券将状态置为未选中" style="edgeStyle=orthogonalEdgeStyle;html=1;align=left;spacingLeft=2;endArrow=block;rounded=0;entryX=1;entryY=0;" edge="1" target="mux9gDT_WzU1CUeuig7T-17" parent="1">
          <mxGeometry relative="1" as="geometry">
            <mxPoint x="725" y="290" as="sourcePoint" />
            <Array as="points">
              <mxPoint x="750" y="290" />
            </Array>
          </mxGeometry>
        </mxCell>
        <mxCell id="mux9gDT_WzU1CUeuig7T-19" value="展示二维码" style="html=1;verticalAlign=bottom;endArrow=block;exitX=1.1;exitY=0.263;exitDx=0;exitDy=0;exitPerimeter=0;" edge="1" parent="1">
          <mxGeometry width="80" relative="1" as="geometry">
            <mxPoint x="326" y="426.03999999999996" as="sourcePoint" />
            <mxPoint x="449.5" y="426.03999999999996" as="targetPoint" />
          </mxGeometry>
        </mxCell>
        <mxCell id="mux9gDT_WzU1CUeuig7T-25" value="" style="html=1;points=[];perimeter=orthogonalPerimeter;" vertex="1" parent="1">
          <mxGeometry x="720" y="490" width="10" height="40" as="geometry" />
        </mxCell>
        <mxCell id="mux9gDT_WzU1CUeuig7T-26" value="查询当前用户是否有选中优惠券" style="edgeStyle=orthogonalEdgeStyle;html=1;align=left;spacingLeft=2;endArrow=block;rounded=0;entryX=1;entryY=0;" edge="1" target="mux9gDT_WzU1CUeuig7T-25" parent="1">
          <mxGeometry relative="1" as="geometry">
            <mxPoint x="725" y="470" as="sourcePoint" />
            <Array as="points">
              <mxPoint x="750" y="470" />
            </Array>
          </mxGeometry>
        </mxCell>
        <mxCell id="mux9gDT_WzU1CUeuig7T-27" value="返回优惠金额并核销优惠券" style="html=1;verticalAlign=bottom;endArrow=open;dashed=1;endSize=8;exitX=0.1;exitY=0.82;exitDx=0;exitDy=0;exitPerimeter=0;" edge="1" parent="1" source="mux9gDT_WzU1CUeuig7T-24" target="mux9gDT_WzU1CUeuig7T-3">
          <mxGeometry relative="1" as="geometry">
            <mxPoint x="710" y="543" as="sourcePoint" />
            <mxPoint x="630" y="543" as="targetPoint" />
          </mxGeometry>
        </mxCell>
      </root>
    </mxGraphModel>
  </diagram>
</mxfile>
